solid acute

  facet normal 0 0 -1
    outer loop
      vertex 0 105.146 0
      vertex 170.13 0 0
      vertex 0 -105.146 0
    endloop
  endfacet
  facet normal 0 0 -1
    outer loop
      vertex -170.13 0 0
      vertex 0 105.146 0
      vertex 0 -105.146 0
    endloop
  endfacet
  facet normal 1.051 1.701 0
    outer loop
      vertex 170.13 0 4
      vertex 170.13 0 0
      vertex 0 105.146 0
    endloop
  endfacet
  facet normal 1.051 1.701 0
    outer loop
      vertex 0 105.146 4
      vertex 170.13 0 4
      vertex 0 105.146 0
    endloop
  endfacet
  facet normal -1.051 1.701 0
    outer loop
      vertex 0 105.146 4
      vertex 0 105.146 0
      vertex -170.13 0 0
    endloop
  endfacet
  facet normal -1.051 1.701 0
    outer loop
      vertex -170.13 0 4
      vertex 0 105.146 4
      vertex -170.13 0 0
    endloop
  endfacet
  facet normal -1.051 -1.701 0
    outer loop
      vertex -170.13 0 4
      vertex -170.13 0 0
      vertex 0 -105.146 0
    endloop
  endfacet
  facet normal -1.051 -1.701 0
    outer loop
      vertex 0 -105.146 4
      vertex -170.13 0 4
      vertex 0 -105.146 0
    endloop
  endfacet
  facet normal 1.051 -1.701 0
    outer loop
      vertex 0 -105.146 4
      vertex 0 -105.146 0
      vertex 170.13 0 0
    endloop
  endfacet
  facet normal 1.051 -1.701 0
    outer loop
      vertex 170.13 0 4
      vertex 0 -105.146 4
      vertex 170.13 0 0
    endloop
  endfacet
  facet normal 0 0 1
    outer loop
      vertex 0 -105.146 4
      vertex 170.13 0 4
      vertex 0 105.146 4
    endloop
  endfacet
  facet normal 0 0 1
    outer loop
      vertex 0 -105.146 4
      vertex 0 105.146 4
      vertex -170.13 0 4
    endloop
  endfacet
endsolid acute